<mxfile host="app.diagrams.net" modified="2023-07-31T07:44:18.961Z" agent="Mozilla/5.0 (Windows NT 10.0; Win64; x64; rv:109.0) Gecko/20100101 Firefox/115.0" version="21.6.6" etag="jqfas5AFamN80DHrHIgu" type="github">
  <diagram name="PÃ¡gina-1" id="lNPt2hcp4ftyjH1aMXVs">
    <mxGraphModel>
      <root>
        <mxCell id="0" />
        <mxCell id="1" parent="0" />
      </root>
    </mxGraphModel>
  </diagram>
</mxfile>
